<svg width="96" height="97" viewBox="0 0 96 97" fill="none" xmlns="http://www.w3.org/2000/svg">
<path d="M43.5692 2.08296C44.7854 1.3735 46.1649 1 47.5692 1C48.9735 1 50.353 1.3735 51.5692 2.08296L85.1384 21.666C86.3546 22.3755 87.3645 23.3959 88.0666 24.6248C88.7688 25.8536 89.1384 27.2475 89.1384 28.6664V67.8326C89.1384 69.2515 88.7688 70.6454 88.0666 71.8743C87.3645 73.1031 86.3546 74.1235 85.1384 74.833L51.5692 94.416C50.3531 95.1255 48.9735 95.499 47.5692 95.499C46.1649 95.499 44.7853 95.1255 43.5692 94.416L10 74.833C8.78383 74.1235 7.77392 73.1031 7.07177 71.8743C6.36962 70.6454 5.99998 69.2515 6 67.8326V28.6664C6 27.2475 6.36965 25.8536 7.0718 24.6248C7.77394 23.3959 8.78385 22.3755 10 21.666L43.5692 2.08296Z" fill="white"/>
<path fill-rule="evenodd" clip-rule="evenodd" d="M84.2763 22.9272L51.6205 4.07336C49.3801 2.77989 46.6199 2.77989 44.3795 4.07336L11.7237 22.9272C9.48337 24.2207 8.10326 26.6111 8.10326 29.198V66.9057C8.10326 69.4927 9.48337 71.8831 11.7237 73.1766L44.3795 92.0304C46.6199 93.3239 49.3801 93.3239 51.6205 92.0304L84.2763 73.1766C86.5166 71.8831 87.8967 69.4927 87.8967 66.9057V29.198C87.8967 26.6111 86.5166 24.2207 84.2763 22.9272ZM53.1721 1.38586C49.9716 -0.461953 46.0284 -0.461954 42.8279 1.38586L10.1721 20.2397C6.97159 22.0875 5 25.5024 5 29.198V66.9057C5 70.6014 6.97159 74.0162 10.1721 75.8641L42.8279 94.7179C46.0284 96.5657 49.9716 96.5657 53.1721 94.7179L85.8279 75.8641C89.0284 74.0162 91 70.6014 91 66.9057V29.198C91 25.5024 89.0284 22.0875 85.8279 20.2397L53.1721 1.38586Z" fill="#27334E"/>
<path d="M29.6932 30.0909H37.4318L47.7955 55.3864H48.2045L58.5682 30.0909H66.3068V65H60.2386V41.017H59.9148L50.267 64.8977H45.733L36.0852 40.9659H35.7614V65H29.6932V30.0909Z" fill="#F54707"/>
</svg>
