<svg width="163" height="165" viewBox="0 0 163 165" fill="none" xmlns="http://www.w3.org/2000/svg">
<path d="M74.5985 5.77971C78.8567 3.2632 84.1433 3.26322 88.4015 5.77971L142.458 37.7265C146.599 40.1734 149.14 44.631 149.14 49.4473V113.852C149.14 118.668 146.599 123.126 142.458 125.573L88.4015 157.519C84.1433 160.036 78.8567 160.036 74.5985 157.519L20.5416 125.573C16.4009 123.126 13.8598 118.668 13.8598 113.852V49.4473C13.8598 44.631 16.4009 40.1734 20.5416 37.7265L74.5985 5.77971Z" fill="white"/>
<path fill-rule="evenodd" clip-rule="evenodd" d="M143.094 38.9999L87.6473 6.92891C83.8433 4.72868 79.1567 4.72868 75.3527 6.92891L19.9059 38.9999C16.102 41.2002 13.7587 45.2663 13.7587 49.6667V113.809C13.7587 118.209 16.102 122.275 19.9059 124.476L75.3527 156.547C79.1567 158.747 83.8433 158.747 87.6473 156.547L143.094 124.476C146.898 122.275 149.241 118.209 149.241 113.809V49.6667C149.241 45.2663 146.898 41.2002 143.094 38.9999ZM90.2818 2.35739C84.8476 -0.785796 78.1524 -0.785798 72.7182 2.35739L17.2714 34.4284C11.8372 37.5715 8.48959 43.3804 8.48959 49.6667V113.809C8.48959 120.095 11.8372 125.904 17.2714 129.047L72.7182 161.118C78.1524 164.261 84.8476 164.261 90.2818 161.118L145.729 129.047C151.163 125.904 154.51 120.095 154.51 113.809V49.6667C154.51 43.3804 151.163 37.5715 145.729 34.4284L90.2818 2.35739Z" fill="black"/>
<path d="M26.8285 54.8487C26.2855 55.148 26.4844 56.2586 26.4844 56.7656V62.2578C26.4844 62.7515 26.2962 64.2806 27.2294 63.8779C27.7535 63.6516 28.1591 63.0946 28.5625 62.7089C29.2988 62.0052 30.0718 61.3518 30.7885 60.625C31.117 60.2919 31.7245 59.8184 31.6742 59.2891C31.6289 58.8135 31.0998 58.4146 30.7889 58.1016C29.9513 57.2577 29.1144 56.4116 28.2656 55.5789C27.937 55.2563 27.3628 54.5542 26.8285 54.8487ZM58.3984 64.0391V57.2109C58.3984 56.7115 58.6535 55.1594 58.1605 54.8563C57.6852 54.564 57.0606 55.3019 56.7656 55.5746C55.966 56.3141 55.161 57.0328 54.3906 57.8047C54.0437 58.1523 53.5566 58.5268 53.3643 58.9922C53.0914 59.6536 53.8373 60.2128 54.2418 60.625C55.3709 61.7758 56.6959 63.7811 58.3984 64.0391ZM38.6563 57.7658C37.2933 58.2703 36.6473 59.8441 35.3906 60.4724C34.6109 60.8624 33.6469 60.3877 32.8672 60.7776C32.1777 61.1223 31.6246 61.8699 31.0859 62.4061C30.1686 63.3191 29.1929 64.1713 28.2656 65.0759C27.7574 65.5718 27.0079 66.0262 26.743 66.7115C26.4315 67.5174 26.6328 68.6786 26.6328 69.5313V75.4688V80.0703C26.6328 80.8314 26.5218 81.6467 26.9941 82.2969C27.6689 83.2258 28.6425 84.01 29.4531 84.8203C29.8888 85.2558 30.3427 85.8474 30.9375 86.0667C31.4685 86.2624 32.162 86.1563 32.7188 86.1563H36.1328H48.0078H52.0156C52.6692 86.1563 53.476 86.279 54.0938 86.0289C54.8588 85.7191 55.4542 84.9443 56.0234 84.375C56.8093 83.5893 57.9579 82.7453 58.4077 81.7031C58.8395 80.7024 58.5234 79.189 58.4237 78.1406C58.303 76.8721 58.3984 75.5551 58.3984 74.2813V69.0859C58.3984 68.3699 58.5746 67.3684 58.2459 66.7109C57.8743 65.9677 57.0487 65.3612 56.4688 64.7813C55.2143 63.5268 53.8007 61.5185 52.1641 60.7717C51.5053 60.4712 50.7403 60.7772 50.0859 60.45C48.9062 59.8601 48.2951 58.4565 47.1172 57.8519C46.4697 57.5195 45.5957 57.6563 44.8906 57.6563H40.7344C40.0813 57.6563 39.2788 57.5354 38.6563 57.7658ZM73.9844 66.3292C72.4583 66.5483 70.9125 67.1623 69.8765 68.3495C67.6529 70.8978 67.6127 75.8778 69.8976 78.4121C71.5886 80.2879 74.2707 80.7288 76.6563 80.3189C81.7376 79.446 82.9555 72.3335 80.2296 68.6412C78.845 66.7659 76.2326 66.0063 73.9844 66.3292ZM101.148 66.5625C101.148 67.1539 100.875 68.6771 101.386 69.0818C101.893 69.4826 103.202 69.2344 103.82 69.2344V66.5625H101.148ZM94.6172 70.4219C94.2503 70.4222 93.6795 70.3297 93.3708 70.5745C92.9887 70.8773 92.9887 72.193 93.3708 72.4958C93.6795 72.7406 94.2503 72.6481 94.6172 72.6484V76.6563C94.6175 77.5469 94.6309 78.5603 95.1669 79.3217C95.8388 80.2762 96.9665 80.3722 98.0313 80.367C98.4316 80.3651 98.9649 80.4147 99.2777 80.1086C99.7258 79.6698 99.5156 78.5659 99.5156 77.9922C98.9556 77.9922 98.2443 78.0933 97.7682 77.7336C97.2818 77.3659 97.292 76.7621 97.2892 76.2109C97.283 75.0234 97.2891 73.8359 97.2891 72.6484H99.3672C99.3672 72.1268 99.5875 70.9374 99.1293 70.5745C98.7157 70.2469 97.7874 70.4219 97.2891 70.4219C97.2891 69.801 97.4782 68.8088 97.1996 68.2425C96.9408 67.7168 95.1161 67.6992 94.7698 68.1364C94.3867 68.62 94.6172 69.8327 94.6172 70.4219ZM33.0156 68.6991C34.4711 68.3648 36.274 68.6406 37.7656 68.6406H47.4141H50.6797C51.3815 68.6406 52.1255 68.5854 52.7571 68.9507C53.7953 69.5513 53.7969 70.5464 53.7969 71.6094C53.797 73.8434 54.0287 76.2181 53.7807 78.4375C53.6986 79.1726 53.1746 79.7803 52.4609 79.9853C51.0567 80.3887 49.1676 80.0703 47.7109 80.0703H37.4688H34.0547C33.4063 80.07 32.7091 80.1104 32.1315 79.7602C31.1565 79.1689 31.3828 77.929 31.3828 76.9531V72.3516C31.3828 71.6486 31.2601 70.8078 31.4472 70.125C31.6392 69.4241 32.3198 68.859 33.0156 68.6991ZM24.5459 68.9572C24.1878 68.9957 23.8189 69.2694 23.5156 69.4459C23.0605 69.7109 22.4822 69.996 22.2063 70.4666C21.9406 70.9196 22.0313 71.5516 22.0313 72.0547V75.3203C22.0313 76.1611 21.8212 77.344 22.1414 78.1342C22.4004 78.7733 23.9734 79.7537 24.6812 79.6259C25.392 79.4975 25.1484 78.0517 25.1484 77.5469V71.1641C25.1484 70.6465 25.4251 68.8628 24.5459 68.9572ZM60.2269 68.9308C59.6113 69.1195 59.8828 70.8184 59.8828 71.3125V77.8438C59.8828 78.5211 59.6971 79.8753 60.7742 79.6303C61.4767 79.4706 62.501 78.9368 62.8474 78.2827C63.1508 77.71 63 76.8384 63 76.2109V72.6484C63 72.036 63.1007 71.3144 62.9356 70.7193C62.7288 69.9732 61.054 68.6776 60.2269 68.9308ZM74.2813 68.9822C75.4518 68.8093 76.81 69.0779 77.6164 70.004C79.6833 72.3783 78.6474 77.3685 75.3203 77.8009C70.4504 78.4336 69.7238 69.6553 74.2813 68.9822ZM85.7109 71.4609C85.5803 71.1157 85.4893 70.7835 85.4141 70.4219C84.8454 70.4219 83.4345 70.1658 83.0432 70.6598C82.6266 71.186 82.8906 72.6009 82.8906 73.2422V80.3672C82.8906 81.0371 82.6093 82.5501 83.0432 83.098C83.4479 83.6089 84.9711 83.3359 85.5625 83.3359V79.3281C87.2936 80.7891 90.2503 80.8256 91.6798 78.8806C93.0962 76.9537 93.0939 73.6836 91.6798 71.76C90.4756 70.1219 86.8293 69.2739 85.7109 71.4609ZM108.125 71.6094C108.039 71.3303 108.013 70.8902 107.824 70.6597C107.436 70.1845 106.155 70.4219 105.602 70.4219V80.2188C106.17 80.2188 107.581 80.4748 107.972 79.9808C108.26 79.6173 108.125 78.8695 108.125 78.4375C108.125 77.0907 107.864 75.4257 108.282 74.1328C108.535 73.3516 109.17 72.6275 110.055 72.6712C110.804 72.708 111.291 73.2927 111.46 73.9844C111.792 75.3503 111.539 77.0355 111.539 78.4375C111.539 78.8695 111.404 79.6173 111.692 79.9808C112.096 80.4917 113.62 80.2188 114.211 80.2188V76.3594C114.211 75.6255 114.13 74.8373 114.376 74.1328C114.714 73.1607 115.665 72.2889 116.72 72.8647C117.503 73.2916 117.615 74.2211 117.624 75.0234C117.645 76.7547 117.625 78.4874 117.625 80.2188H120.297V74.875C120.297 73.8163 120.39 72.7219 119.864 71.7584C118.682 69.5915 114.97 69.6619 113.914 71.9063H113.617C112.857 69.6896 109.219 69.6862 108.125 71.6094ZM140.484 73.2422C140.319 69.6738 134.498 69.3082 132.681 71.7584C131.862 72.8643 132.194 74.5605 133.217 75.4109C133.925 75.9982 134.851 76.2181 135.734 76.3713C136.349 76.4778 137.719 76.5854 137.824 77.4042C137.925 78.1907 136.755 78.4869 136.18 78.3842C135.421 78.2487 135.211 77.6232 134.628 77.2542C134.24 77.0089 133.648 77.0987 133.211 77.1017C132.854 77.1041 132.291 77.0409 132.119 77.4456C131.729 78.3639 132.986 79.4371 133.656 79.8031C135.428 80.7711 138.283 80.7871 139.863 79.398C140.236 79.0698 140.541 78.6182 140.685 78.1406C140.798 77.7646 140.797 77.3423 140.775 76.9531C140.668 75.0513 138.763 74.5388 137.219 74.1958C136.624 74.0638 135.765 74.0102 135.352 73.4977C135.005 73.0661 135.32 72.6183 135.741 72.3988C136.246 72.1356 136.878 72.1954 137.348 72.5007C137.637 72.6882 137.826 73.0167 138.148 73.1531C138.792 73.4266 139.793 73.2422 140.484 73.2422ZM103.82 80.2188V76.0625V73.3906C103.82 72.762 104.124 71.0035 103.582 70.5745C103.274 70.3303 102.701 70.4197 102.336 70.422C102.008 70.4241 101.532 70.3684 101.301 70.6598C100.955 71.0962 101.148 72.1243 101.148 72.6484V77.8438C101.148 78.3976 100.937 79.5214 101.301 79.9808C101.706 80.4917 103.229 80.2188 103.82 80.2188ZM121.781 70.4219V75.7656C121.781 76.8204 121.685 77.9322 122.239 78.8827C123.394 80.8613 126.983 81.1079 128.164 79.0313C128.259 79.3376 128.281 79.8557 128.55 80.0662C128.962 80.388 130.64 80.3935 130.895 79.8747C131.173 79.31 130.984 78.3121 130.984 77.6953V72.7969C130.984 72.2431 131.196 71.1192 130.832 70.6598C130.507 70.2491 128.943 70.2975 128.508 70.5114C127.961 70.7805 128.164 71.8568 128.164 72.3516C128.164 73.6669 128.516 75.5949 127.931 76.8041C127.54 77.6112 126.539 78.2249 125.641 77.8819C123.819 77.1856 124.453 73.8687 124.453 72.3516C124.453 71.8838 124.634 70.9059 124.215 70.5745C123.709 70.1737 122.4 70.4219 121.781 70.4219ZM35.1003 71.9913C33.9616 72.3397 34.3496 74.2541 34.3516 75.1719C34.3523 75.5495 34.3056 75.9978 34.5042 76.338C35.0322 77.2421 36.746 76.9576 37.6172 76.953C37.9567 76.9512 38.3285 76.9739 38.6497 76.843C39.7465 76.396 39.4033 74.6287 39.3983 73.6875C39.3961 73.2512 39.4241 72.7577 39.1399 72.393C38.5197 71.5971 35.9839 71.7209 35.1003 71.9913ZM46.2485 72.0164C45.8567 72.1938 45.8012 72.5569 45.7841 72.9459C45.7447 73.8425 45.4568 75.6936 45.9339 76.474C46.128 76.7915 46.4709 76.8976 46.8205 76.9369C47.704 77.0364 49.4233 77.2123 50.2124 76.7575C51.057 76.2708 50.6853 74.2271 50.6796 73.3906C50.677 73.0124 50.7076 72.5735 50.4418 72.2676C50.2008 71.9904 49.8381 71.9345 49.4922 71.9128C48.6091 71.8574 47.0636 71.6477 46.2485 72.0164ZM87.3438 72.5591C90.3045 71.9152 90.8619 77.4025 88.2344 77.9411C85.1107 78.5815 84.6101 73.1536 87.3438 72.5591ZM78.4375 93.4297C78.0695 93.43 77.6247 93.3733 77.2773 93.5192C76.8118 93.7148 76.5515 94.2532 76.1971 94.5897C75.4275 95.3203 74.4496 95.7052 73.3906 95.6497C69.134 95.4263 68.7922 87.8311 72.3516 86.3764C73.5373 85.8919 75.0744 86.1482 76.0566 86.9563C76.6619 87.4545 77.2191 88.9454 78.2413 88.4416C79.1122 88.0123 77.7437 86.3831 77.3846 86.0142C75.3668 83.9422 71.2359 84.1788 69.4613 86.4537C67.608 88.8298 67.684 93.255 69.7072 95.5056C72.0927 98.1594 78.0189 97.5168 78.4375 93.4297ZM80.3672 84.6719V96.9922C80.879 96.9922 81.765 97.1574 81.9528 96.5249C82.459 94.8198 81.4276 92.6979 82.2506 91.0547C82.9274 89.7035 84.8733 88.9875 85.8581 90.4765C86.456 91.3807 86.3047 92.8425 86.3047 93.875V96.9922H87.7891V92.6875C87.7891 91.8656 87.8988 90.9526 87.6245 90.1641C86.7279 87.5857 83.6401 87.8668 82 89.4219V86.0078C81.9993 85.6486 82.0837 85.0793 81.7621 84.8245C81.4254 84.5577 80.7684 84.6719 80.3672 84.6719ZM99.5156 88.2344C98.3791 88.2353 98.0354 88.3868 98.0313 89.5703H99.5156V93.4297C99.5159 94.2563 99.4926 95.2152 99.9828 95.9273C100.609 96.8363 101.612 96.9975 102.633 96.992C103.048 96.9898 103.649 97.0434 103.767 96.5257C104.042 95.3186 101.827 95.8371 101.344 94.9075C101.07 94.38 101.148 93.7067 101.148 93.1328V89.5703H103.523V88.2344H101.148V86.1563C100.782 86.1566 100.211 86.0641 99.902 86.3089C99.5024 86.6256 99.5764 87.7536 99.5156 88.2344ZM29.1563 87.7192C27.9512 87.9958 26.8553 88.9386 26.5634 90.1641C26.2892 91.3153 26.4844 92.696 26.4844 93.875V101.148V104.266C26.4857 104.948 26.5139 105.58 27.2294 105.898C28.1104 106.289 29.0237 105.229 29.6016 104.698C30.6311 103.752 31.6856 102.833 32.7188 101.891C33.2763 101.382 33.9288 100.612 34.6484 100.347C35.1401 100.167 35.7663 100.258 36.2813 100.258H39.5469H50.0859C51.7602 100.258 53.8192 100.578 55.4297 100.077C58.6413 99.0766 58.3984 95.8562 58.3984 93.1328C58.3984 91.0602 58.3649 88.9077 56.1719 87.9234C55.2917 87.5284 54.2922 87.6406 53.3516 87.6406H48.4531H35.5391H31.3828C30.6574 87.6406 29.8677 87.5559 29.1563 87.7192ZM89.8672 90.4609C90.2683 90.4926 90.7715 90.6521 91.1607 90.5145C91.6198 90.3524 91.9314 89.9061 92.3908 89.7201C93.5275 89.2601 94.7866 89.7458 95.1948 90.9061C95.3153 91.2487 95.3429 91.5864 95.3594 91.9453C93.962 91.9453 92.3791 91.7705 91.0547 92.3139C89.1756 93.0849 88.8338 95.5227 90.6116 96.6242C92.2567 97.6435 94.0751 97.0587 95.3594 95.8047C95.3667 96.1078 95.331 96.5001 95.5344 96.7544C95.8265 97.1197 96.6907 97.0787 96.9027 96.6481C97.1311 96.1837 96.9922 95.4185 96.9922 94.9141C96.9922 93.4393 97.227 91.7311 96.7548 90.3125C95.7568 87.3133 90.797 87.5487 89.8672 90.4609ZM95.3594 93.2813C95.3181 93.7511 95.2351 94.1965 95.0006 94.615C94.3767 95.7272 92.3972 96.3121 91.416 95.2972C90.6566 94.5118 91.352 93.5447 92.2422 93.3397C92.6261 93.2514 93.0387 93.2814 93.4297 93.2813H95.3594Z" fill="#323E46"/>
</svg>
