<svg width="127" height="37" viewBox="0 0 127 37" fill="none" xmlns="http://www.w3.org/2000/svg">
<g clip-path="url(#clip0_2031_7)">
<path d="M11.1014 25.2487C7.83628 25.2487 5.18933 27.8793 5.18933 31.1243C5.18933 34.3693 7.83628 37 11.1014 37C14.3665 37 17.0134 34.3693 17.0134 31.1243C17.0134 27.8793 14.3665 25.2487 11.1014 25.2487ZM11.4477 27.7246H12.0124L14.4339 31.8519L13.8692 32.1752L11.7288 28.5306L10.6784 30.3252L10.1137 29.9996L11.4477 27.7246ZM7.64107 33.4917L7.07868 33.1637L8.58458 30.6024L8.60782 30.5608H9.1888C9.52345 30.9119 9.9952 31.1336 10.5204 31.1336C11.0828 31.1336 11.5871 30.8818 11.9217 30.4846L12.4051 30.9188C11.9496 31.4454 11.2734 31.7803 10.5204 31.7803C9.93013 31.7803 9.38866 31.5747 8.96338 31.2329L8.73099 31.6301H8.73331L7.63874 33.4917H7.64107ZM14.7778 33.4917H8.81465V32.8427H14.7778V33.4917Z" fill="#0096DE"/>
<path d="M21.0106 28.8425H21.7938L23.453 33.7158H22.8628L22.3817 32.3115H20.3599L19.8858 33.7158H19.3234L21.0106 28.8425ZM20.5249 31.8403H22.226L21.3754 29.3321L20.5249 31.8403Z" fill="#0096DE"/>
<path d="M23.8876 32.4062V30.1497H24.457V32.3785C24.457 33.0044 24.7242 33.2838 25.2866 33.2838C25.7932 33.2838 26.2743 32.9489 26.2743 32.3092V30.1497H26.8436V33.7134H26.2743V33.1476C26.1093 33.4825 25.7119 33.7758 25.1356 33.7758C24.4221 33.7758 23.8876 33.3878 23.8876 32.4062Z" fill="#0096DE"/>
<path d="M27.3758 30.1497H27.994L29.056 33.1429L30.1064 30.1497H30.6944L29.4046 33.7157H28.6795L27.3758 30.1497Z" fill="#0096DE"/>
<path d="M30.8617 31.9697V31.9142C30.8617 30.838 31.5542 30.0873 32.5419 30.0873C33.3715 30.0873 34.1524 30.5839 34.1524 31.8588V32.0436H31.452C31.4799 32.8543 31.8703 33.3046 32.6046 33.3046C33.1601 33.3046 33.4831 33.0991 33.5574 32.6833H34.1268C34.0036 33.3993 33.4064 33.7735 32.5977 33.7735C31.5821 33.7735 30.8617 33.0644 30.8617 31.9674M33.5714 31.5863C33.5156 30.8495 33.1322 30.5585 32.5419 30.5585C31.9516 30.5585 31.5682 30.9534 31.4729 31.5863H33.5714Z" fill="#0096DE"/>
<path d="M34.8565 30.1497H35.4259V30.7895C35.6513 30.3876 35.9604 30.1081 36.6041 30.0873V30.6186C35.8837 30.6532 35.4259 30.8772 35.4259 31.7572V33.7134H34.8565V30.1497Z" fill="#0096DE"/>
<path d="M36.9271 33.919H37.5105C37.5918 34.3278 37.9357 34.538 38.5469 34.538C39.2534 34.538 39.6996 34.2031 39.6996 33.4409V32.9235C39.4951 33.27 39.0071 33.598 38.4865 33.598C37.5476 33.598 36.8551 32.8889 36.8551 31.9073V31.8588C36.8551 30.8911 37.5407 30.0873 38.5283 30.0873C39.1256 30.0873 39.4951 30.3737 39.7019 30.7202V30.1474H40.2713V33.4732C40.2643 34.5102 39.5578 35.0137 38.5562 35.0137C37.4942 35.0137 37.0271 34.5172 36.9318 33.9167M39.7228 31.8657V31.8172C39.7228 31.0204 39.2836 30.5562 38.5841 30.5562C37.8846 30.5562 37.4454 31.0805 37.4454 31.8311V31.8842C37.4454 32.6602 37.945 33.1245 38.5492 33.1245C39.2139 33.1245 39.7228 32.6603 39.7228 31.8634" fill="#0096DE"/>
<path d="M41.1799 30.1497H41.7493V30.7156C41.9143 30.3807 42.3117 30.0873 42.902 30.0873C43.6433 30.0873 44.1638 30.4892 44.1638 31.5262V33.7134H43.5945V31.4847C43.5945 30.8588 43.3272 30.5793 42.7509 30.5793C42.2234 30.5793 41.7493 30.9142 41.7493 31.5539V33.7134H41.1799V30.1497Z" fill="#0096DE"/>
<path d="M44.8308 31.9697V31.9142C44.8308 30.838 45.5233 30.0873 46.511 30.0873C47.3406 30.0873 48.1215 30.5839 48.1215 31.8588V32.0436H45.4211C45.449 32.8543 45.8394 33.3046 46.5738 33.3046C47.1292 33.3046 47.4499 33.0991 47.5266 32.6833H48.0959C47.9728 33.3993 47.3755 33.7735 46.5668 33.7735C45.5512 33.7735 44.8308 33.0644 44.8308 31.9674M47.5405 31.5863C47.4847 30.8495 47.1013 30.5585 46.511 30.5585C45.9207 30.5585 45.5373 30.9534 45.442 31.5863H47.5405Z" fill="#0096DE"/>
<path d="M50.2757 31.5747H48.807V32.1059H50.2757V31.5747Z" fill="#0096DE"/>
<path d="M51.2495 28.8425H52.7228C53.6617 28.8425 54.4379 29.2235 54.4379 30.1982V30.2259C54.4379 31.0297 53.8964 31.4246 53.2248 31.5539L54.726 33.7134H54.0614L52.602 31.5932H51.8467V33.7134H51.2495V28.8401V28.8425ZM52.7646 31.1244C53.4641 31.1244 53.8406 30.8241 53.8406 30.2259V30.1982C53.8406 29.5377 53.4293 29.3182 52.7646 29.3182H51.8467V31.1244H52.7646Z" fill="#0096DE"/>
<path d="M55.3093 28.4475H55.8787V30.7179C56.0437 30.383 56.4411 30.0896 57.0314 30.0896C57.7727 30.0896 58.2932 30.4915 58.2932 31.5285V33.7157H57.7239V31.487C57.7239 30.8611 57.4566 30.5816 56.8803 30.5816C56.3528 30.5816 55.8787 30.9142 55.8787 31.5563V33.7157H55.3093V28.4475Z" fill="#0096DE"/>
<path d="M58.9486 31.9627V31.9073C58.9486 30.838 59.6969 30.0873 60.7101 30.0873C61.7234 30.0873 62.4717 30.831 62.4717 31.9004V31.9558C62.4717 33.0321 61.7234 33.7758 60.7032 33.7758C59.683 33.7758 58.9486 33.0067 58.9486 31.9627ZM61.8837 31.9627V31.9142C61.8837 31.0897 61.4236 30.5585 60.7101 30.5585C59.9967 30.5585 59.5366 31.0897 59.5366 31.9073V31.9627C59.5366 32.7734 59.9828 33.3046 60.7101 33.3046C61.4375 33.3046 61.8837 32.7665 61.8837 31.9627ZM60.4568 28.5561H60.9704L61.7048 29.5376H61.2865L60.7032 29.0272L60.1199 29.5376H59.7155L60.4568 28.5561Z" fill="#0096DE"/>
<path d="M63.1689 30.1497H63.7382V30.7156C63.9032 30.3807 64.3006 30.0873 64.8909 30.0873C65.6322 30.0873 66.1528 30.4892 66.1528 31.5262V33.7134H65.5834V31.4847C65.5834 30.8588 65.3162 30.5793 64.7399 30.5793C64.2123 30.5793 63.7382 30.9142 63.7382 31.5539V33.7134H63.1689V30.1497Z" fill="#0096DE"/>
<path d="M66.8221 31.9697V31.9142C66.8221 30.838 67.5146 30.0873 68.5023 30.0873C69.3319 30.0873 70.1128 30.5839 70.1128 31.8588V32.0436H67.41C67.4379 32.8543 67.8283 33.3046 68.5627 33.3046C69.1181 33.3046 69.4411 33.0991 69.5155 32.6833H70.0849C69.9617 33.3993 69.3645 33.7735 68.5557 33.7735C67.5402 33.7735 66.8198 33.0644 66.8198 31.9674M69.5295 31.5863C69.4737 30.8495 69.0902 30.5585 68.5 30.5585C67.9097 30.5585 67.5262 30.9534 67.431 31.5863H69.5295Z" fill="#0096DE"/>
<path d="M72.2647 31.5747H70.796V32.1059H72.2647V31.5747Z" fill="#0096DE"/>
<path d="M74.398 28.8425H75.1812L76.8405 33.7158H76.2502L75.7692 32.3115H73.7473L73.2733 33.7158H72.7109L74.398 28.8425ZM73.9123 31.8403H75.6135L74.7629 29.3321L73.9123 31.8403Z" fill="#0096DE"/>
<path d="M78.0187 28.4475H77.4424V33.7157H78.0187V28.4475Z" fill="#0096DE"/>
<path d="M78.932 30.1497H79.5014V30.7502C79.7059 30.4015 80.1939 30.0897 80.7145 30.0897C81.6533 30.0897 82.3458 30.771 82.3458 31.8819V31.935C82.3458 33.0252 81.7021 33.7758 80.7145 33.7758C80.1242 33.7758 79.7059 33.4825 79.5014 33.1291V34.956H78.932V30.152V30.1497ZM81.7579 31.9628V31.9073C81.7579 31.0089 81.2583 30.5585 80.654 30.5585C79.9894 30.5585 79.4805 30.995 79.4805 31.9073V31.9628C79.4805 32.8751 79.9615 33.3046 80.661 33.3046C81.3744 33.3046 81.7579 32.8289 81.7579 31.9628Z" fill="#0096DE"/>
<path d="M82.8246 31.9697V31.9142C82.8246 30.838 83.5171 30.0873 84.5048 30.0873C85.3344 30.0873 86.1153 30.5839 86.1153 31.8588V32.0436H83.4149C83.4428 32.8543 83.8332 33.3046 84.5675 33.3046C85.1229 33.3046 85.446 33.0991 85.5203 32.6833H86.0897C85.9665 33.3993 85.3693 33.7735 84.5606 33.7735C83.545 33.7735 82.8246 33.0644 82.8246 31.9674M85.5343 31.5863C85.4785 30.8495 85.0951 30.5562 84.5048 30.5562C83.9145 30.5562 83.5311 30.9511 83.4358 31.5863H85.5343Z" fill="#0096DE"/>
<path d="M86.5545 32.6187H87.1099C87.1517 33.0413 87.3772 33.307 87.9535 33.307C88.495 33.307 88.7343 33.1222 88.7343 32.7411C88.7343 32.36 88.4531 32.2445 87.8977 32.1406C86.9658 31.9697 86.6498 31.711 86.6498 31.092C86.6498 30.4315 87.3005 30.0897 87.8629 30.0897C88.5066 30.0897 89.062 30.3483 89.1596 31.1197H88.6112C88.5298 30.7317 88.3091 30.5608 87.8559 30.5608C87.4446 30.5608 87.1773 30.7664 87.1773 31.0712C87.1773 31.3761 87.3563 31.5216 88.0139 31.6371C88.7553 31.7734 89.2758 31.9374 89.2758 32.6926C89.2758 33.3393 88.8296 33.7758 87.9605 33.7758C87.0913 33.7758 86.5894 33.3462 86.5545 32.6164" fill="#0096DE"/>
<path d="M112.338 0.175537C115.088 0.175537 117.179 2.21954 117.179 4.94951C117.179 7.67947 115.085 9.705 112.338 9.705C109.591 9.705 107.498 7.67947 107.498 4.94951C107.498 2.21954 109.589 0.175537 112.338 0.175537ZM112.338 7.2545C113.572 7.2545 114.469 6.28908 114.469 4.95182C114.469 3.61455 113.572 2.64682 112.338 2.64682C111.104 2.64682 110.207 3.61224 110.207 4.95182C110.207 6.29139 111.104 7.2545 112.338 7.2545Z" fill="#2F343B"/>
<path d="M96.7611 0.369568H94.0933V9.51102H100.038V7.07437H96.7611V0.369568Z" fill="#2F343B"/>
<path d="M124.323 0.369568V5.43917L121.75 0.441166L121.713 0.369568H118.401V9.5064H121.067V4.42525L123.677 9.5064H127V0.369568H124.323Z" fill="#2F343B"/>
<path d="M104.57 0.369568L103.245 3.11801L101.92 0.369568H98.9177L101.911 6.18517V9.52026H104.579V6.18517L107.572 0.369568H104.57Z" fill="#2F343B"/>
<path d="M72.8921 22.2878C74.3492 22.8259 75.962 23.1262 77.6283 23.1262C84.5908 23.1262 90.2541 17.9388 90.2541 11.5642C90.2541 5.1897 84.5884 0 77.6283 0C74.7211 0 72.0416 0.907678 69.9059 2.42509C67.7934 0.935393 64.7514 0 61.3771 0C58.5675 0 55.8903 0.639763 53.7941 1.81074C51.698 0.642072 49.0208 0 46.2112 0C44.9446 0 43.7246 0.133958 42.5835 0.376467C42.5138 0.390325 42.4371 0.406492 42.3697 0.422659H34.6706V13.3819C34.6706 14.9686 33.0438 16.2574 31.0429 16.2574C29.0421 16.2574 27.4153 14.9663 27.4153 13.3819V0.422659H0V7.2083H6.93226V22.2855H15.9305V7.2083H19.5024V15.3012C19.5024 19.3892 24.68 22.715 31.0429 22.715C32.3095 22.715 33.5295 22.5811 34.6706 22.3386C34.745 22.3224 34.8216 22.3062 34.896 22.2878H42.5835V9.33315C42.5835 7.74644 44.2103 6.45537 46.2112 6.45537C48.2121 6.45537 49.8388 7.74644 49.8388 9.33315V22.2878H57.7518V9.33315C57.7518 7.74644 59.3785 6.45537 61.3794 6.45537C63.3803 6.45537 65.0071 7.74644 65.0071 9.33315V22.2878H72.8968H72.8921ZM26.2069 6.0073H20.7108V1.62597H26.2069V6.00961V6.0073ZM14.722 6.0073V21.0845H8.14302V6.0073H1.20844V1.62597H19.5024V6.00961H14.722V6.0073ZM34.6706 21.1168C33.5412 21.3732 32.3188 21.5117 31.0429 21.5117C25.347 21.5117 20.7131 18.724 20.7131 15.2989V7.2083H26.2069V13.3819C26.2069 15.6292 28.3774 17.4607 31.0429 17.4607C32.4861 17.4607 33.7829 16.9248 34.6706 16.0749V21.1191V21.1168ZM39.0117 1.62597C37.4942 2.44588 35.7837 4.23583 35.879 4.11573V1.62597H39.0117ZM41.3728 1.92853V15.3035C41.3728 17.6801 39.1441 19.7449 35.8767 20.7888V7.41386C35.8767 5.03958 38.1053 2.97247 41.3728 1.92853ZM41.3728 18.6016V21.0868H38.2471C39.5531 20.4147 40.6222 19.5717 41.3728 18.6016ZM71.7069 7.41617V20.4216C68.4163 18.6016 66.2109 15.315 66.2109 11.5665C66.2109 8.54788 67.6424 5.82715 69.9198 3.93096C71.0469 4.9264 71.7069 6.12509 71.7069 7.41617ZM70.8471 3.18958C70.7053 3.06024 70.5589 2.9309 70.4079 2.80849C70.5612 2.93321 70.7053 3.06024 70.8471 3.18958ZM65.76 7.61941C64.9908 6.22672 63.3153 5.25899 61.3748 5.25899C58.7092 5.25899 56.5387 7.0882 56.5387 9.33777V21.0891H51.0449V9.33777C51.0449 7.0882 48.8744 5.25899 46.2089 5.25899C44.7657 5.25899 43.469 5.79482 42.5812 6.64476V1.59825C43.7106 1.34189 44.933 1.20331 46.2089 1.20331C48.9441 1.20331 51.526 1.85 53.4804 3.02097L53.7941 3.20805L54.1055 3.02097C56.06 1.84769 58.6418 1.20331 61.3771 1.20331C64.361 1.20331 67.0521 1.96779 68.9391 3.18958C69.0228 3.11567 69.1134 3.04638 69.1994 2.97478C67.6726 4.23121 66.4781 5.82023 65.7623 7.61941M69.9012 2.43202C69.727 2.55674 69.555 2.68377 69.3877 2.81773C69.555 2.68608 69.7246 2.55674 69.9012 2.43202ZM70.4799 21.0868H66.2132V16.4929C67.1706 18.3476 68.6486 19.932 70.4799 21.0868ZM77.6306 21.9321C75.9504 21.9321 74.3562 21.5972 72.9177 21.0036V14.86C74.0006 16.1673 75.711 17.0149 77.6306 17.0149C80.8957 17.0149 83.552 14.5713 83.552 11.5665C83.552 8.56174 80.8957 6.11816 77.6306 6.11816C75.711 6.11816 74.0006 6.96579 72.9177 8.27303V7.41617C72.9177 5.85718 72.1647 4.40905 70.8796 3.21267C72.7713 1.947 75.1068 1.19869 77.6306 1.19869C83.9261 1.19869 89.0457 5.84794 89.0457 11.5642C89.0457 17.2805 83.9261 21.9321 77.6306 21.9321ZM72.9177 11.5642C72.9177 9.21998 75.0325 7.31223 77.6306 7.31223C80.2287 7.31223 82.3435 9.21998 82.3435 11.5642C82.3435 13.9085 80.2287 15.8162 77.6306 15.8162C75.0325 15.8162 72.9177 13.9085 72.9177 11.5642Z" fill="#2F343B"/>
</g>
<defs>
<clipPath id="clip0_2031_7">
<rect width="127" height="37" fill="white"/>
</clipPath>
</defs>
</svg>
