<svg width="86" height="97" viewBox="0 0 86 97" fill="none" xmlns="http://www.w3.org/2000/svg">
<path d="M38.5692 1.08296C39.7854 0.373501 41.1649 0 42.5692 0C43.9735 0 45.353 0.373501 46.5692 1.08296L80.1384 20.666C81.3546 21.3755 82.3645 22.3959 83.0666 23.6248C83.7688 24.8536 84.1384 26.2475 84.1384 27.6664V66.8326C84.1384 68.2515 83.7688 69.6454 83.0666 70.8743C82.3645 72.1031 81.3546 73.1235 80.1384 73.833L46.5692 93.416C45.3531 94.1255 43.9735 94.499 42.5692 94.499C41.1649 94.499 39.7853 94.1255 38.5692 93.416L5 73.833C3.78383 73.1235 2.77392 72.1031 2.07177 70.8743C1.36962 69.6454 0.99998 68.2515 1 66.8326V27.6664C1 26.2475 1.36965 24.8536 2.0718 23.6248C2.77394 22.3959 3.78385 21.3755 5 20.666L38.5692 1.08296Z" fill="white"/>
<path fill-rule="evenodd" clip-rule="evenodd" d="M79.2763 22.9272L46.6205 4.07336C44.3801 2.77989 41.6199 2.77989 39.3795 4.07336L6.7237 22.9272C4.48337 24.2207 3.10326 26.6111 3.10326 29.198V66.9057C3.10326 69.4927 4.48337 71.8831 6.7237 73.1766L39.3795 92.0304C41.6199 93.3239 44.3801 93.3239 46.6205 92.0304L79.2763 73.1766C81.5166 71.8831 82.8967 69.4927 82.8967 66.9057V29.198C82.8967 26.6111 81.5166 24.2207 79.2763 22.9272ZM48.1721 1.38586C44.9716 -0.461953 41.0284 -0.461954 37.8279 1.38586L5.1721 20.2397C1.97159 22.0875 0 25.5024 0 29.198V66.9057C0 70.6014 1.97159 74.0162 5.1721 75.8641L37.8279 94.7179C41.0284 96.5657 44.9716 96.5657 48.1721 94.7179L80.8279 75.8641C84.0284 74.0162 86 70.6014 86 66.9057V29.198C86 25.5024 84.0284 22.0875 80.8279 20.2397L48.1721 1.38586Z" fill="#F0DB4F"/>
<g clip-path="url(#clip0_2023_25)">
<path d="M64.8744 38.2217C64.7644 38.1051 64.6475 37.9886 64.5306 37.8789C64.4138 37.7691 64.3038 37.6457 64.1869 37.536C64.07 37.4263 63.96 37.3029 63.8431 37.1931C63.7263 37.0834 63.6163 36.96 63.4994 36.8503C63.3825 36.7406 63.2725 36.6171 63.1556 36.5074C63.0388 36.3977 62.9288 36.2743 62.8119 36.1646C62.695 36.0549 62.585 35.9314 62.4681 35.8217C65.8782 39.1644 67.8318 43.7117 67.9063 48.48C67.9063 59.8423 56.3425 69.0857 42.125 69.0857C34.1638 69.0857 27.0413 66.1851 22.3044 61.6389L22.6481 61.9817L22.9919 62.3246L23.3356 62.6674L23.6794 63.0103L24.0231 63.3531L24.3669 63.696L24.7106 64.0389C29.4406 68.7771 36.7213 71.8286 44.875 71.8286C59.0925 71.8286 70.6563 62.5851 70.6563 51.2571C70.6563 46.416 68.5663 41.8286 64.8744 38.2217Z" fill="black"/>
<path d="M66.1875 48.48C66.1875 58.9097 55.4144 67.3646 42.125 67.3646C28.8356 67.3646 18.0625 58.9097 18.0625 48.48C18.0625 42.0137 22.1875 36.3017 28.5262 32.9143C34.865 29.5268 38.8112 26.0571 42.125 26.0571C45.4388 26.0571 48.2712 28.8891 55.7237 32.9143C62.0625 36.3017 66.1875 42.0137 66.1875 48.48Z" fill="#FBF0DF"/>
<path d="M66.1875 48.48C66.1842 47.1402 65.9992 45.8069 65.6375 44.5166C63.7606 67.3509 35.8344 68.448 24.855 61.6183C29.7906 65.4339 35.8812 67.4604 42.125 67.3646C55.3938 67.3646 66.1875 58.896 66.1875 48.48Z" fill="#F6DECE"/>
<path d="M32.8644 31.6594C35.9375 29.8217 40.0212 26.3726 44.0362 26.3657C43.4186 26.1666 42.7741 26.0625 42.125 26.0571C40.4612 26.0571 38.6875 26.9143 36.4531 28.2034C35.6763 28.656 34.8719 29.1566 34.0194 29.6777C32.4175 30.6651 30.5819 31.7828 28.5194 32.9006C21.9744 36.432 18.0625 42.2537 18.0625 48.48C18.0625 48.7543 18.0625 49.0286 18.0625 49.296C22.2287 34.6148 29.7981 33.4971 32.8644 31.6594Z" fill="#FFFEFC"/>
<path fill-rule="evenodd" clip-rule="evenodd" d="M40.145 27.792C40.1546 29.4111 39.8138 31.0132 39.1458 32.489C38.4778 33.9647 37.4983 35.2792 36.2744 36.3428C36.0819 36.5143 36.2331 36.8434 36.4806 36.7474C38.7975 35.8491 41.9256 33.1611 40.6056 27.7371C40.5506 27.4286 40.145 27.5108 40.145 27.792ZM41.7056 27.792C42.5468 29.161 43.0813 30.6952 43.2723 32.2895C43.4634 33.8838 43.3065 35.5004 42.8125 37.0286C42.73 37.2686 43.0256 37.4743 43.1906 37.2754C44.6962 35.3554 46.0094 31.5428 42.0769 27.4286C41.8775 27.2503 41.5681 27.5246 41.7056 27.7646V27.792ZM43.6031 27.6754C44.9205 28.6056 46.0225 29.8068 46.8349 31.1979C47.6473 32.5889 48.1511 34.1376 48.3125 35.7394C48.3055 35.7971 48.3211 35.8553 48.356 35.9019C48.3909 35.9485 48.4424 35.9799 48.4999 35.9896C48.5574 35.9993 48.6164 35.9865 48.6647 35.954C48.713 35.9215 48.7469 35.8716 48.7594 35.8148C49.3919 33.4217 49.0344 29.3417 43.83 27.2228C43.555 27.1131 43.3762 27.4834 43.6031 27.648V27.6754ZM30.9119 34.8068C32.4789 34.3399 33.9297 33.5491 35.1699 32.4857C36.4101 31.4224 37.4119 30.1105 38.11 28.6354C38.2337 28.3886 38.6256 28.4846 38.5637 28.7588C37.3744 34.2446 33.3937 35.3897 30.9187 35.2388C30.6575 35.2457 30.6644 34.8823 30.9119 34.8068Z" fill="#CCBEA7"/>
<path d="M42.125 69.0857C27.9075 69.0857 16.3438 59.8423 16.3438 48.48C16.3438 41.6229 20.5925 35.2251 27.7081 31.392C29.7706 30.2948 31.5375 29.1908 33.1119 28.224C33.9781 27.6891 34.7962 27.1886 35.5869 26.7223C38 25.296 40.0625 24.3428 42.125 24.3428C44.1875 24.3428 45.9888 25.1657 48.2438 26.496C48.9313 26.8868 49.6188 27.312 50.3544 27.7783C52.0663 28.8343 53.9981 30.0274 56.5419 31.392C63.6575 35.2251 67.9062 41.616 67.9062 48.48C67.9062 59.8423 56.3425 69.0857 42.125 69.0857ZM42.125 26.0571C40.4612 26.0571 38.6875 26.9143 36.4531 28.2034C35.6763 28.656 34.8719 29.1566 34.0194 29.6777C32.4175 30.6651 30.5819 31.7828 28.5194 32.9006C21.9744 36.432 18.0625 42.2537 18.0625 48.48C18.0625 58.896 28.8563 67.3714 42.125 67.3714C55.3937 67.3714 66.1875 58.896 66.1875 48.48C66.1875 42.2537 62.2756 36.432 55.7237 32.9143C53.125 31.5428 51.0969 30.2537 49.4537 29.2388C48.7044 28.7794 48.0169 28.3543 47.3912 27.9771C45.3081 26.7428 43.7888 26.0571 42.125 26.0571Z" fill="black"/>
<path d="M46.9719 53.4857C46.663 54.7474 45.96 55.8784 44.9644 56.7154C44.2169 57.4381 43.2492 57.8918 42.2144 58.0046C41.1484 57.9096 40.1468 57.4549 39.375 56.7154C38.3895 55.8745 37.6964 54.7439 37.395 53.4857C37.385 53.411 37.3923 53.335 37.4163 53.2636C37.4403 53.1921 37.4804 53.1271 37.5335 53.0735C37.5866 53.0199 37.6512 52.9791 37.7226 52.9543C37.7939 52.9295 37.87 52.9213 37.945 52.9303H46.4287C46.5032 52.9224 46.5785 52.9314 46.649 52.9568C46.7194 52.9821 46.7832 53.023 46.8355 53.0765C46.8878 53.13 46.9272 53.1946 46.9508 53.2655C46.9745 53.3364 46.9817 53.4117 46.9719 53.4857Z" fill="#B71422"/>
<path d="M39.375 56.7703C40.1452 57.5102 41.1432 57.9692 42.2075 58.0731C43.2693 57.9677 44.2647 57.5088 45.0331 56.7703C45.2789 56.5418 45.5086 56.2966 45.7206 56.0366C45.2971 55.5574 44.7798 55.1696 44.2004 54.8972C43.6211 54.6248 42.992 54.4735 42.3519 54.4526C41.6669 54.4688 40.9962 54.6507 40.3974 54.9828C39.7985 55.3149 39.2896 55.7871 38.9144 56.3589C39.0725 56.5029 39.21 56.64 39.375 56.7703Z" fill="#FF6164"/>
<path d="M39.485 56.2286C39.8258 55.7891 40.2621 55.4325 40.7611 55.1855C41.26 54.9384 41.8086 54.8074 42.3656 54.8023C43.3952 54.8326 44.3762 55.246 45.1156 55.9612C45.2737 55.7897 45.425 55.6114 45.5694 55.4332C44.6947 54.6024 43.5389 54.13 42.3312 54.1097C41.6859 54.1153 41.0497 54.2633 40.4685 54.5431C39.8872 54.8229 39.3753 55.2275 38.9694 55.728C39.1319 55.9042 39.304 56.0713 39.485 56.2286Z" fill="black"/>
<path d="M42.1869 58.416C41.0413 58.3159 39.9632 57.8326 39.1275 57.0446C38.0633 56.1468 37.3142 54.9336 36.9894 53.5817C36.9661 53.4614 36.97 53.3373 37.001 53.2187C37.0319 53.1001 37.089 52.9898 37.1681 52.896C37.2623 52.7825 37.3813 52.692 37.516 52.6314C37.6506 52.5708 37.7974 52.5417 37.945 52.5463H46.4288C46.5762 52.5432 46.7225 52.573 46.8569 52.6335C46.9913 52.694 47.1104 52.7837 47.2056 52.896C47.284 52.9901 47.3401 53.1006 47.3699 53.2193C47.3996 53.338 47.4022 53.4619 47.3775 53.5817C47.0527 54.9336 46.3036 56.1468 45.2394 57.0446C44.4055 57.8312 43.3301 58.3144 42.1869 58.416ZM37.945 53.3417C37.835 53.3417 37.8075 53.3897 37.8006 53.4034C38.0912 54.5758 38.7486 55.6254 39.6775 56.4C40.3567 57.0674 41.2398 57.4897 42.1869 57.6C43.1315 57.491 44.0136 57.074 44.6963 56.4137C45.6222 55.6378 46.2771 54.5884 46.5663 53.4172C46.5513 53.3952 46.5305 53.3779 46.5062 53.367C46.482 53.3561 46.4552 53.3521 46.4288 53.3554L37.945 53.3417Z" fill="black"/>
<path d="M52.5888 53.9109C54.81 53.9109 56.6106 52.8548 56.6106 51.552C56.6106 50.2492 54.81 49.1931 52.5888 49.1931C50.3676 49.1931 48.5669 50.2492 48.5669 51.552C48.5669 52.8548 50.3676 53.9109 52.5888 53.9109Z" fill="#FEBBD0"/>
<path d="M31.7781 53.9109C33.9994 53.9109 35.8 52.8548 35.8 51.552C35.8 50.2492 33.9994 49.1931 31.7781 49.1931C29.5569 49.1931 27.7563 50.2492 27.7563 51.552C27.7563 52.8548 29.5569 53.9109 31.7781 53.9109Z" fill="#FEBBD0"/>
<path fill-rule="evenodd" clip-rule="evenodd" d="M33.6688 50.6057C34.4183 50.6071 35.1513 50.3866 35.7752 49.9723C36.3991 49.558 36.8857 48.9683 37.1734 48.2781C37.4612 47.5878 37.5372 46.8279 37.3918 46.0945C37.2464 45.3612 36.8862 44.6873 36.3567 44.1582C35.8272 43.6291 35.1522 43.2686 34.4172 43.1223C33.6822 42.9759 32.9202 43.0503 32.2276 43.3361C31.535 43.6219 30.943 44.1061 30.5264 44.7276C30.1099 45.3491 29.8875 46.0799 29.8875 46.8274C29.8875 47.8283 30.2857 48.7883 30.9946 49.4967C31.7035 50.205 32.6653 50.6039 33.6688 50.6057ZM50.6981 50.6057C51.4485 50.6111 52.1836 50.3942 52.8101 49.9823C53.4367 49.5705 53.9265 48.9823 54.2175 48.2924C54.5084 47.6025 54.5873 46.842 54.4443 46.1073C54.3013 45.3726 53.9427 44.6968 53.414 44.1656C52.8853 43.6345 52.2104 43.2719 51.4748 43.1239C50.7393 42.9759 49.9762 43.0491 49.2824 43.3342C48.5886 43.6193 47.9954 44.1036 47.5779 44.7255C47.1604 45.3474 46.9375 46.079 46.9375 46.8274C46.9357 47.8253 47.3304 48.7832 48.0353 49.4914C48.7401 50.1996 49.6977 50.6003 50.6981 50.6057Z" fill="black"/>
<path fill-rule="evenodd" clip-rule="evenodd" d="M32.5 47.0674C32.7818 47.0688 33.0576 46.9867 33.2925 46.8316C33.5275 46.6764 33.7109 46.4552 33.8197 46.196C33.9285 45.9367 33.9576 45.6511 33.9035 45.3753C33.8494 45.0995 33.7144 44.846 33.5156 44.6468C33.3169 44.4476 33.0633 44.3117 32.7871 44.2564C32.5108 44.201 32.2243 44.2288 31.9639 44.336C31.7034 44.4432 31.4808 44.6251 31.3241 44.8587C31.1674 45.0923 31.0838 45.367 31.0838 45.648C31.0838 46.0233 31.2328 46.3833 31.4982 46.6493C31.7636 46.9153 32.1238 47.0656 32.5 47.0674ZM49.5294 47.0674C49.8112 47.0688 50.087 46.9867 50.3219 46.8316C50.5568 46.6764 50.7403 46.4552 50.8491 46.196C50.9579 45.9367 50.987 45.6511 50.9329 45.3753C50.8787 45.0995 50.7438 44.846 50.545 44.6468C50.3463 44.4476 50.0927 44.3117 49.8164 44.2564C49.5402 44.201 49.2537 44.2288 48.9933 44.336C48.7328 44.4432 48.5102 44.6251 48.3535 44.8587C48.1968 45.0923 48.1131 45.367 48.1131 45.648C48.1131 46.0209 48.2602 46.3789 48.5227 46.6445C48.7851 46.9101 49.1418 47.062 49.5156 47.0674H49.5294Z" fill="white"/>
</g>
<defs>
<clipPath id="clip0_2023_25">
<rect width="55" height="48" fill="white" transform="translate(16 24)"/>
</clipPath>
</defs>
</svg>
